<mxfile host="app.diagrams.net" agent="Mozilla/5.0 (Windows NT 10.0; Win64; x64) AppleWebKit/537.36 (KHTML, like Gecko) Chrome/130.0.0.0 Safari/537.36" version="24.8.3">
  <diagram name="Страница — 1" id="fwNOZqrx0dQVNAqH0BqX">
    <mxGraphModel dx="659" dy="1520" grid="1" gridSize="10" guides="1" tooltips="1" connect="1" arrows="1" fold="1" page="1" pageScale="1" pageWidth="827" pageHeight="1169" math="0" shadow="0">
      <root>
        <mxCell id="0" />
        <mxCell id="1" parent="0" />
        <mxCell id="YhL8sy9WghlC7MRLAg31-7" style="edgeStyle=orthogonalEdgeStyle;rounded=0;orthogonalLoop=1;jettySize=auto;html=1;" edge="1" parent="1" source="YhL8sy9WghlC7MRLAg31-1" target="YhL8sy9WghlC7MRLAg31-8">
          <mxGeometry relative="1" as="geometry">
            <mxPoint x="414" y="-1100" as="targetPoint" />
          </mxGeometry>
        </mxCell>
        <mxCell id="YhL8sy9WghlC7MRLAg31-1" value="Начало" style="rounded=1;whiteSpace=wrap;html=1;arcSize=50;fontFamily=Times New Roman;fontStyle=1;labelBackgroundColor=none;fontColor=default;labelBorderColor=none;fontSize=14;spacing=8;" vertex="1" parent="1">
          <mxGeometry x="359" y="-1169" width="110" height="30" as="geometry" />
        </mxCell>
        <mxCell id="YhL8sy9WghlC7MRLAg31-2" value="Конец" style="rounded=1;whiteSpace=wrap;html=1;arcSize=50;fontFamily=Times New Roman;fontStyle=1;labelBackgroundColor=none;fontColor=default;labelBorderColor=none;fontSize=14;spacing=8;" vertex="1" parent="1">
          <mxGeometry x="362" y="490" width="110" height="30" as="geometry" />
        </mxCell>
        <mxCell id="YhL8sy9WghlC7MRLAg31-9" style="edgeStyle=orthogonalEdgeStyle;rounded=0;orthogonalLoop=1;jettySize=auto;html=1;" edge="1" parent="1" source="YhL8sy9WghlC7MRLAg31-8" target="YhL8sy9WghlC7MRLAg31-10">
          <mxGeometry relative="1" as="geometry">
            <mxPoint x="414" y="-1020" as="targetPoint" />
          </mxGeometry>
        </mxCell>
        <mxCell id="YhL8sy9WghlC7MRLAg31-8" value="char c" style="shape=parallelogram;perimeter=parallelogramPerimeter;whiteSpace=wrap;html=1;fixedSize=1;" vertex="1" parent="1">
          <mxGeometry x="354" y="-1090" width="120" height="30" as="geometry" />
        </mxCell>
        <mxCell id="YhL8sy9WghlC7MRLAg31-11" style="edgeStyle=orthogonalEdgeStyle;rounded=0;orthogonalLoop=1;jettySize=auto;html=1;" edge="1" parent="1" source="YhL8sy9WghlC7MRLAg31-10" target="YhL8sy9WghlC7MRLAg31-14">
          <mxGeometry relative="1" as="geometry">
            <mxPoint x="490" y="-1005" as="targetPoint" />
          </mxGeometry>
        </mxCell>
        <mxCell id="YhL8sy9WghlC7MRLAg31-40" style="edgeStyle=orthogonalEdgeStyle;rounded=0;orthogonalLoop=1;jettySize=auto;html=1;entryX=0.5;entryY=0;entryDx=0;entryDy=0;" edge="1" parent="1" source="YhL8sy9WghlC7MRLAg31-10" target="YhL8sy9WghlC7MRLAg31-16">
          <mxGeometry relative="1" as="geometry" />
        </mxCell>
        <mxCell id="YhL8sy9WghlC7MRLAg31-10" value="a" style="rhombus;whiteSpace=wrap;html=1;" vertex="1" parent="1">
          <mxGeometry x="386" y="-1020" width="56" height="30" as="geometry" />
        </mxCell>
        <mxCell id="YhL8sy9WghlC7MRLAg31-74" style="edgeStyle=orthogonalEdgeStyle;rounded=0;orthogonalLoop=1;jettySize=auto;html=1;elbow=vertical;" edge="1" parent="1" source="YhL8sy9WghlC7MRLAg31-14">
          <mxGeometry relative="1" as="geometry">
            <mxPoint x="410" y="-160" as="targetPoint" />
            <Array as="points">
              <mxPoint x="641" y="-1005" />
              <mxPoint x="641" y="-160" />
            </Array>
          </mxGeometry>
        </mxCell>
        <mxCell id="YhL8sy9WghlC7MRLAg31-14" value="Это буква" style="shape=parallelogram;perimeter=parallelogramPerimeter;whiteSpace=wrap;html=1;fixedSize=1;" vertex="1" parent="1">
          <mxGeometry x="480" y="-1017.5" width="100" height="25" as="geometry" />
        </mxCell>
        <mxCell id="YhL8sy9WghlC7MRLAg31-15" style="edgeStyle=orthogonalEdgeStyle;rounded=0;orthogonalLoop=1;jettySize=auto;html=1;" edge="1" parent="1" source="YhL8sy9WghlC7MRLAg31-16" target="YhL8sy9WghlC7MRLAg31-17">
          <mxGeometry relative="1" as="geometry">
            <mxPoint x="490" y="-955" as="targetPoint" />
          </mxGeometry>
        </mxCell>
        <mxCell id="YhL8sy9WghlC7MRLAg31-41" style="edgeStyle=orthogonalEdgeStyle;rounded=0;orthogonalLoop=1;jettySize=auto;html=1;entryX=0.5;entryY=0;entryDx=0;entryDy=0;" edge="1" parent="1" source="YhL8sy9WghlC7MRLAg31-16" target="YhL8sy9WghlC7MRLAg31-22">
          <mxGeometry relative="1" as="geometry" />
        </mxCell>
        <mxCell id="YhL8sy9WghlC7MRLAg31-16" value="b" style="rhombus;whiteSpace=wrap;html=1;" vertex="1" parent="1">
          <mxGeometry x="386" y="-970" width="56" height="30" as="geometry" />
        </mxCell>
        <mxCell id="YhL8sy9WghlC7MRLAg31-78" style="rounded=0;orthogonalLoop=1;jettySize=auto;html=1;endArrow=none;endFill=0;" edge="1" parent="1" source="YhL8sy9WghlC7MRLAg31-17">
          <mxGeometry relative="1" as="geometry">
            <mxPoint x="640" y="-955" as="targetPoint" />
          </mxGeometry>
        </mxCell>
        <mxCell id="YhL8sy9WghlC7MRLAg31-17" value="Это буква" style="shape=parallelogram;perimeter=parallelogramPerimeter;whiteSpace=wrap;html=1;fixedSize=1;" vertex="1" parent="1">
          <mxGeometry x="480" y="-967.5" width="100" height="25" as="geometry" />
        </mxCell>
        <mxCell id="YhL8sy9WghlC7MRLAg31-21" style="edgeStyle=orthogonalEdgeStyle;rounded=0;orthogonalLoop=1;jettySize=auto;html=1;" edge="1" parent="1" source="YhL8sy9WghlC7MRLAg31-22" target="YhL8sy9WghlC7MRLAg31-23">
          <mxGeometry relative="1" as="geometry">
            <mxPoint x="490" y="-905" as="targetPoint" />
          </mxGeometry>
        </mxCell>
        <mxCell id="YhL8sy9WghlC7MRLAg31-42" style="edgeStyle=orthogonalEdgeStyle;rounded=0;orthogonalLoop=1;jettySize=auto;html=1;entryX=0.5;entryY=0;entryDx=0;entryDy=0;" edge="1" parent="1" source="YhL8sy9WghlC7MRLAg31-22" target="YhL8sy9WghlC7MRLAg31-25">
          <mxGeometry relative="1" as="geometry" />
        </mxCell>
        <mxCell id="YhL8sy9WghlC7MRLAg31-22" value="c" style="rhombus;whiteSpace=wrap;html=1;" vertex="1" parent="1">
          <mxGeometry x="386" y="-920" width="56" height="30" as="geometry" />
        </mxCell>
        <mxCell id="YhL8sy9WghlC7MRLAg31-23" value="Это буква" style="shape=parallelogram;perimeter=parallelogramPerimeter;whiteSpace=wrap;html=1;fixedSize=1;" vertex="1" parent="1">
          <mxGeometry x="480" y="-917.5" width="100" height="25" as="geometry" />
        </mxCell>
        <mxCell id="YhL8sy9WghlC7MRLAg31-24" style="edgeStyle=orthogonalEdgeStyle;rounded=0;orthogonalLoop=1;jettySize=auto;html=1;" edge="1" parent="1" source="YhL8sy9WghlC7MRLAg31-25" target="YhL8sy9WghlC7MRLAg31-26">
          <mxGeometry relative="1" as="geometry">
            <mxPoint x="490" y="-855" as="targetPoint" />
          </mxGeometry>
        </mxCell>
        <mxCell id="YhL8sy9WghlC7MRLAg31-43" style="edgeStyle=orthogonalEdgeStyle;rounded=0;orthogonalLoop=1;jettySize=auto;html=1;entryX=0.5;entryY=0;entryDx=0;entryDy=0;" edge="1" parent="1" source="YhL8sy9WghlC7MRLAg31-25" target="YhL8sy9WghlC7MRLAg31-28">
          <mxGeometry relative="1" as="geometry" />
        </mxCell>
        <mxCell id="YhL8sy9WghlC7MRLAg31-25" value="d" style="rhombus;whiteSpace=wrap;html=1;" vertex="1" parent="1">
          <mxGeometry x="386" y="-870" width="56" height="30" as="geometry" />
        </mxCell>
        <mxCell id="YhL8sy9WghlC7MRLAg31-26" value="Это буква" style="shape=parallelogram;perimeter=parallelogramPerimeter;whiteSpace=wrap;html=1;fixedSize=1;" vertex="1" parent="1">
          <mxGeometry x="480" y="-867.5" width="100" height="25" as="geometry" />
        </mxCell>
        <mxCell id="YhL8sy9WghlC7MRLAg31-27" style="edgeStyle=orthogonalEdgeStyle;rounded=0;orthogonalLoop=1;jettySize=auto;html=1;" edge="1" parent="1" source="YhL8sy9WghlC7MRLAg31-28" target="YhL8sy9WghlC7MRLAg31-29">
          <mxGeometry relative="1" as="geometry">
            <mxPoint x="490" y="-805" as="targetPoint" />
          </mxGeometry>
        </mxCell>
        <mxCell id="YhL8sy9WghlC7MRLAg31-45" style="edgeStyle=orthogonalEdgeStyle;rounded=0;orthogonalLoop=1;jettySize=auto;html=1;entryX=0.5;entryY=0;entryDx=0;entryDy=0;" edge="1" parent="1" source="YhL8sy9WghlC7MRLAg31-28" target="YhL8sy9WghlC7MRLAg31-31">
          <mxGeometry relative="1" as="geometry" />
        </mxCell>
        <mxCell id="YhL8sy9WghlC7MRLAg31-28" value="e" style="rhombus;whiteSpace=wrap;html=1;" vertex="1" parent="1">
          <mxGeometry x="386" y="-820" width="56" height="30" as="geometry" />
        </mxCell>
        <mxCell id="YhL8sy9WghlC7MRLAg31-29" value="Это буква" style="shape=parallelogram;perimeter=parallelogramPerimeter;whiteSpace=wrap;html=1;fixedSize=1;" vertex="1" parent="1">
          <mxGeometry x="480" y="-817.5" width="100" height="25" as="geometry" />
        </mxCell>
        <mxCell id="YhL8sy9WghlC7MRLAg31-30" style="edgeStyle=orthogonalEdgeStyle;rounded=0;orthogonalLoop=1;jettySize=auto;html=1;" edge="1" parent="1" source="YhL8sy9WghlC7MRLAg31-31" target="YhL8sy9WghlC7MRLAg31-32">
          <mxGeometry relative="1" as="geometry">
            <mxPoint x="490" y="-755" as="targetPoint" />
          </mxGeometry>
        </mxCell>
        <mxCell id="YhL8sy9WghlC7MRLAg31-36" value="" style="edgeStyle=orthogonalEdgeStyle;rounded=0;orthogonalLoop=1;jettySize=auto;html=1;" edge="1" parent="1" source="YhL8sy9WghlC7MRLAg31-31" target="YhL8sy9WghlC7MRLAg31-34">
          <mxGeometry relative="1" as="geometry" />
        </mxCell>
        <mxCell id="YhL8sy9WghlC7MRLAg31-31" value="f" style="rhombus;whiteSpace=wrap;html=1;" vertex="1" parent="1">
          <mxGeometry x="386" y="-770" width="56" height="30" as="geometry" />
        </mxCell>
        <mxCell id="YhL8sy9WghlC7MRLAg31-32" value="Это буква" style="shape=parallelogram;perimeter=parallelogramPerimeter;whiteSpace=wrap;html=1;fixedSize=1;" vertex="1" parent="1">
          <mxGeometry x="480" y="-767.5" width="100" height="25" as="geometry" />
        </mxCell>
        <mxCell id="YhL8sy9WghlC7MRLAg31-33" style="edgeStyle=orthogonalEdgeStyle;rounded=0;orthogonalLoop=1;jettySize=auto;html=1;" edge="1" parent="1" source="YhL8sy9WghlC7MRLAg31-34" target="YhL8sy9WghlC7MRLAg31-35">
          <mxGeometry relative="1" as="geometry">
            <mxPoint x="490" y="-705" as="targetPoint" />
          </mxGeometry>
        </mxCell>
        <mxCell id="YhL8sy9WghlC7MRLAg31-73" style="edgeStyle=orthogonalEdgeStyle;rounded=0;orthogonalLoop=1;jettySize=auto;html=1;entryX=0.5;entryY=0;entryDx=0;entryDy=0;" edge="1" parent="1" source="YhL8sy9WghlC7MRLAg31-34" target="YhL8sy9WghlC7MRLAg31-48">
          <mxGeometry relative="1" as="geometry" />
        </mxCell>
        <mxCell id="YhL8sy9WghlC7MRLAg31-34" value="j" style="rhombus;whiteSpace=wrap;html=1;" vertex="1" parent="1">
          <mxGeometry x="386" y="-720" width="56" height="30" as="geometry" />
        </mxCell>
        <mxCell id="YhL8sy9WghlC7MRLAg31-35" value="Это буква" style="shape=parallelogram;perimeter=parallelogramPerimeter;whiteSpace=wrap;html=1;fixedSize=1;" vertex="1" parent="1">
          <mxGeometry x="480" y="-717.5" width="100" height="25" as="geometry" />
        </mxCell>
        <mxCell id="YhL8sy9WghlC7MRLAg31-46" style="edgeStyle=orthogonalEdgeStyle;rounded=0;orthogonalLoop=1;jettySize=auto;html=1;" edge="1" parent="1" source="YhL8sy9WghlC7MRLAg31-48" target="YhL8sy9WghlC7MRLAg31-49">
          <mxGeometry relative="1" as="geometry">
            <mxPoint x="490" y="-655" as="targetPoint" />
          </mxGeometry>
        </mxCell>
        <mxCell id="YhL8sy9WghlC7MRLAg31-47" style="edgeStyle=orthogonalEdgeStyle;rounded=0;orthogonalLoop=1;jettySize=auto;html=1;entryX=0.5;entryY=0;entryDx=0;entryDy=0;" edge="1" parent="1" source="YhL8sy9WghlC7MRLAg31-48" target="YhL8sy9WghlC7MRLAg31-52">
          <mxGeometry relative="1" as="geometry" />
        </mxCell>
        <mxCell id="YhL8sy9WghlC7MRLAg31-48" value="0" style="rhombus;whiteSpace=wrap;html=1;" vertex="1" parent="1">
          <mxGeometry x="386" y="-670" width="56" height="30" as="geometry" />
        </mxCell>
        <mxCell id="YhL8sy9WghlC7MRLAg31-49" value="Это цифра" style="shape=parallelogram;perimeter=parallelogramPerimeter;whiteSpace=wrap;html=1;fixedSize=1;" vertex="1" parent="1">
          <mxGeometry x="480" y="-667.5" width="100" height="25" as="geometry" />
        </mxCell>
        <mxCell id="YhL8sy9WghlC7MRLAg31-50" style="edgeStyle=orthogonalEdgeStyle;rounded=0;orthogonalLoop=1;jettySize=auto;html=1;" edge="1" parent="1" source="YhL8sy9WghlC7MRLAg31-52" target="YhL8sy9WghlC7MRLAg31-53">
          <mxGeometry relative="1" as="geometry">
            <mxPoint x="490" y="-605" as="targetPoint" />
          </mxGeometry>
        </mxCell>
        <mxCell id="YhL8sy9WghlC7MRLAg31-51" style="edgeStyle=orthogonalEdgeStyle;rounded=0;orthogonalLoop=1;jettySize=auto;html=1;entryX=0.5;entryY=0;entryDx=0;entryDy=0;" edge="1" parent="1" source="YhL8sy9WghlC7MRLAg31-52" target="YhL8sy9WghlC7MRLAg31-56">
          <mxGeometry relative="1" as="geometry" />
        </mxCell>
        <mxCell id="YhL8sy9WghlC7MRLAg31-52" value="1" style="rhombus;whiteSpace=wrap;html=1;" vertex="1" parent="1">
          <mxGeometry x="386" y="-620" width="56" height="30" as="geometry" />
        </mxCell>
        <mxCell id="YhL8sy9WghlC7MRLAg31-53" value="Это цифра" style="shape=parallelogram;perimeter=parallelogramPerimeter;whiteSpace=wrap;html=1;fixedSize=1;" vertex="1" parent="1">
          <mxGeometry x="480" y="-617.5" width="100" height="25" as="geometry" />
        </mxCell>
        <mxCell id="YhL8sy9WghlC7MRLAg31-54" style="edgeStyle=orthogonalEdgeStyle;rounded=0;orthogonalLoop=1;jettySize=auto;html=1;" edge="1" parent="1" source="YhL8sy9WghlC7MRLAg31-56" target="YhL8sy9WghlC7MRLAg31-57">
          <mxGeometry relative="1" as="geometry">
            <mxPoint x="490" y="-555" as="targetPoint" />
          </mxGeometry>
        </mxCell>
        <mxCell id="YhL8sy9WghlC7MRLAg31-55" style="edgeStyle=orthogonalEdgeStyle;rounded=0;orthogonalLoop=1;jettySize=auto;html=1;entryX=0.5;entryY=0;entryDx=0;entryDy=0;" edge="1" parent="1" source="YhL8sy9WghlC7MRLAg31-56" target="YhL8sy9WghlC7MRLAg31-60">
          <mxGeometry relative="1" as="geometry" />
        </mxCell>
        <mxCell id="YhL8sy9WghlC7MRLAg31-56" value="2" style="rhombus;whiteSpace=wrap;html=1;" vertex="1" parent="1">
          <mxGeometry x="386" y="-570" width="56" height="30" as="geometry" />
        </mxCell>
        <mxCell id="YhL8sy9WghlC7MRLAg31-57" value="Это цифра" style="shape=parallelogram;perimeter=parallelogramPerimeter;whiteSpace=wrap;html=1;fixedSize=1;" vertex="1" parent="1">
          <mxGeometry x="480" y="-567.5" width="100" height="25" as="geometry" />
        </mxCell>
        <mxCell id="YhL8sy9WghlC7MRLAg31-58" style="edgeStyle=orthogonalEdgeStyle;rounded=0;orthogonalLoop=1;jettySize=auto;html=1;" edge="1" parent="1" source="YhL8sy9WghlC7MRLAg31-60" target="YhL8sy9WghlC7MRLAg31-61">
          <mxGeometry relative="1" as="geometry">
            <mxPoint x="490" y="-505" as="targetPoint" />
          </mxGeometry>
        </mxCell>
        <mxCell id="YhL8sy9WghlC7MRLAg31-59" style="edgeStyle=orthogonalEdgeStyle;rounded=0;orthogonalLoop=1;jettySize=auto;html=1;entryX=0.5;entryY=0;entryDx=0;entryDy=0;" edge="1" parent="1" source="YhL8sy9WghlC7MRLAg31-60" target="YhL8sy9WghlC7MRLAg31-64">
          <mxGeometry relative="1" as="geometry" />
        </mxCell>
        <mxCell id="YhL8sy9WghlC7MRLAg31-60" value="3" style="rhombus;whiteSpace=wrap;html=1;" vertex="1" parent="1">
          <mxGeometry x="386" y="-520" width="56" height="30" as="geometry" />
        </mxCell>
        <mxCell id="YhL8sy9WghlC7MRLAg31-61" value="Это цифра" style="shape=parallelogram;perimeter=parallelogramPerimeter;whiteSpace=wrap;html=1;fixedSize=1;" vertex="1" parent="1">
          <mxGeometry x="480" y="-517.5" width="100" height="25" as="geometry" />
        </mxCell>
        <mxCell id="YhL8sy9WghlC7MRLAg31-62" style="edgeStyle=orthogonalEdgeStyle;rounded=0;orthogonalLoop=1;jettySize=auto;html=1;" edge="1" parent="1" source="YhL8sy9WghlC7MRLAg31-64" target="YhL8sy9WghlC7MRLAg31-65">
          <mxGeometry relative="1" as="geometry">
            <mxPoint x="490" y="-455" as="targetPoint" />
          </mxGeometry>
        </mxCell>
        <mxCell id="YhL8sy9WghlC7MRLAg31-63" style="edgeStyle=orthogonalEdgeStyle;rounded=0;orthogonalLoop=1;jettySize=auto;html=1;entryX=0.5;entryY=0;entryDx=0;entryDy=0;" edge="1" parent="1" source="YhL8sy9WghlC7MRLAg31-64" target="YhL8sy9WghlC7MRLAg31-68">
          <mxGeometry relative="1" as="geometry" />
        </mxCell>
        <mxCell id="YhL8sy9WghlC7MRLAg31-64" value="4" style="rhombus;whiteSpace=wrap;html=1;" vertex="1" parent="1">
          <mxGeometry x="386" y="-470" width="56" height="30" as="geometry" />
        </mxCell>
        <mxCell id="YhL8sy9WghlC7MRLAg31-65" value="Это цифра" style="shape=parallelogram;perimeter=parallelogramPerimeter;whiteSpace=wrap;html=1;fixedSize=1;" vertex="1" parent="1">
          <mxGeometry x="480" y="-467.5" width="100" height="25" as="geometry" />
        </mxCell>
        <mxCell id="YhL8sy9WghlC7MRLAg31-66" style="edgeStyle=orthogonalEdgeStyle;rounded=0;orthogonalLoop=1;jettySize=auto;html=1;" edge="1" parent="1" source="YhL8sy9WghlC7MRLAg31-68" target="YhL8sy9WghlC7MRLAg31-69">
          <mxGeometry relative="1" as="geometry">
            <mxPoint x="490" y="-405" as="targetPoint" />
          </mxGeometry>
        </mxCell>
        <mxCell id="YhL8sy9WghlC7MRLAg31-67" value="" style="edgeStyle=orthogonalEdgeStyle;rounded=0;orthogonalLoop=1;jettySize=auto;html=1;" edge="1" parent="1" source="YhL8sy9WghlC7MRLAg31-68" target="YhL8sy9WghlC7MRLAg31-71">
          <mxGeometry relative="1" as="geometry" />
        </mxCell>
        <mxCell id="YhL8sy9WghlC7MRLAg31-68" value="5" style="rhombus;whiteSpace=wrap;html=1;" vertex="1" parent="1">
          <mxGeometry x="386" y="-420" width="56" height="30" as="geometry" />
        </mxCell>
        <mxCell id="YhL8sy9WghlC7MRLAg31-69" value="Это цифра" style="shape=parallelogram;perimeter=parallelogramPerimeter;whiteSpace=wrap;html=1;fixedSize=1;" vertex="1" parent="1">
          <mxGeometry x="480" y="-417.5" width="100" height="25" as="geometry" />
        </mxCell>
        <mxCell id="YhL8sy9WghlC7MRLAg31-70" style="edgeStyle=orthogonalEdgeStyle;rounded=0;orthogonalLoop=1;jettySize=auto;html=1;" edge="1" parent="1" source="YhL8sy9WghlC7MRLAg31-71" target="YhL8sy9WghlC7MRLAg31-72">
          <mxGeometry relative="1" as="geometry">
            <mxPoint x="490" y="-355" as="targetPoint" />
          </mxGeometry>
        </mxCell>
        <mxCell id="YhL8sy9WghlC7MRLAg31-102" style="edgeStyle=orthogonalEdgeStyle;rounded=0;orthogonalLoop=1;jettySize=auto;html=1;entryX=0.5;entryY=0;entryDx=0;entryDy=0;" edge="1" parent="1" source="YhL8sy9WghlC7MRLAg31-71" target="YhL8sy9WghlC7MRLAg31-100">
          <mxGeometry relative="1" as="geometry" />
        </mxCell>
        <mxCell id="YhL8sy9WghlC7MRLAg31-71" value="6" style="rhombus;whiteSpace=wrap;html=1;" vertex="1" parent="1">
          <mxGeometry x="386" y="-370" width="56" height="30" as="geometry" />
        </mxCell>
        <mxCell id="YhL8sy9WghlC7MRLAg31-72" value="Это цифра" style="shape=parallelogram;perimeter=parallelogramPerimeter;whiteSpace=wrap;html=1;fixedSize=1;" vertex="1" parent="1">
          <mxGeometry x="480" y="-367.5" width="100" height="25" as="geometry" />
        </mxCell>
        <mxCell id="YhL8sy9WghlC7MRLAg31-79" style="rounded=0;orthogonalLoop=1;jettySize=auto;html=1;endArrow=none;endFill=0;" edge="1" parent="1">
          <mxGeometry relative="1" as="geometry">
            <mxPoint x="640" y="-905.06" as="targetPoint" />
            <mxPoint x="570" y="-905.06" as="sourcePoint" />
          </mxGeometry>
        </mxCell>
        <mxCell id="YhL8sy9WghlC7MRLAg31-80" style="rounded=0;orthogonalLoop=1;jettySize=auto;html=1;endArrow=none;endFill=0;" edge="1" parent="1">
          <mxGeometry relative="1" as="geometry">
            <mxPoint x="640" y="-855.06" as="targetPoint" />
            <mxPoint x="570" y="-855.06" as="sourcePoint" />
          </mxGeometry>
        </mxCell>
        <mxCell id="YhL8sy9WghlC7MRLAg31-81" style="rounded=0;orthogonalLoop=1;jettySize=auto;html=1;endArrow=none;endFill=0;" edge="1" parent="1">
          <mxGeometry relative="1" as="geometry">
            <mxPoint x="640" y="-805.06" as="targetPoint" />
            <mxPoint x="570" y="-805.06" as="sourcePoint" />
          </mxGeometry>
        </mxCell>
        <mxCell id="YhL8sy9WghlC7MRLAg31-82" style="rounded=0;orthogonalLoop=1;jettySize=auto;html=1;endArrow=none;endFill=0;" edge="1" parent="1">
          <mxGeometry relative="1" as="geometry">
            <mxPoint x="640" y="-755.06" as="targetPoint" />
            <mxPoint x="570" y="-755.06" as="sourcePoint" />
          </mxGeometry>
        </mxCell>
        <mxCell id="YhL8sy9WghlC7MRLAg31-83" style="rounded=0;orthogonalLoop=1;jettySize=auto;html=1;endArrow=none;endFill=0;" edge="1" parent="1">
          <mxGeometry relative="1" as="geometry">
            <mxPoint x="640" y="-705.42" as="targetPoint" />
            <mxPoint x="570" y="-705.42" as="sourcePoint" />
          </mxGeometry>
        </mxCell>
        <mxCell id="YhL8sy9WghlC7MRLAg31-84" style="rounded=0;orthogonalLoop=1;jettySize=auto;html=1;endArrow=none;endFill=0;" edge="1" parent="1">
          <mxGeometry relative="1" as="geometry">
            <mxPoint x="640" y="-655.42" as="targetPoint" />
            <mxPoint x="570" y="-655.42" as="sourcePoint" />
          </mxGeometry>
        </mxCell>
        <mxCell id="YhL8sy9WghlC7MRLAg31-85" style="rounded=0;orthogonalLoop=1;jettySize=auto;html=1;endArrow=none;endFill=0;" edge="1" parent="1">
          <mxGeometry relative="1" as="geometry">
            <mxPoint x="640" y="-605.4200000000001" as="targetPoint" />
            <mxPoint x="570" y="-605.4200000000001" as="sourcePoint" />
          </mxGeometry>
        </mxCell>
        <mxCell id="YhL8sy9WghlC7MRLAg31-86" style="rounded=0;orthogonalLoop=1;jettySize=auto;html=1;endArrow=none;endFill=0;" edge="1" parent="1">
          <mxGeometry relative="1" as="geometry">
            <mxPoint x="640" y="-555.4200000000001" as="targetPoint" />
            <mxPoint x="570" y="-555.4200000000001" as="sourcePoint" />
          </mxGeometry>
        </mxCell>
        <mxCell id="YhL8sy9WghlC7MRLAg31-87" style="rounded=0;orthogonalLoop=1;jettySize=auto;html=1;endArrow=none;endFill=0;" edge="1" parent="1">
          <mxGeometry relative="1" as="geometry">
            <mxPoint x="640" y="-505.42" as="targetPoint" />
            <mxPoint x="570" y="-505.42" as="sourcePoint" />
          </mxGeometry>
        </mxCell>
        <mxCell id="YhL8sy9WghlC7MRLAg31-88" style="rounded=0;orthogonalLoop=1;jettySize=auto;html=1;endArrow=none;endFill=0;" edge="1" parent="1">
          <mxGeometry relative="1" as="geometry">
            <mxPoint x="640" y="-455.42" as="targetPoint" />
            <mxPoint x="570" y="-455.42" as="sourcePoint" />
          </mxGeometry>
        </mxCell>
        <mxCell id="YhL8sy9WghlC7MRLAg31-89" style="rounded=0;orthogonalLoop=1;jettySize=auto;html=1;endArrow=none;endFill=0;" edge="1" parent="1">
          <mxGeometry relative="1" as="geometry">
            <mxPoint x="640" y="-405.42" as="targetPoint" />
            <mxPoint x="570" y="-405.42" as="sourcePoint" />
          </mxGeometry>
        </mxCell>
        <mxCell id="YhL8sy9WghlC7MRLAg31-90" style="rounded=0;orthogonalLoop=1;jettySize=auto;html=1;endArrow=none;endFill=0;" edge="1" parent="1">
          <mxGeometry relative="1" as="geometry">
            <mxPoint x="640" y="-355.42" as="targetPoint" />
            <mxPoint x="570" y="-355.42" as="sourcePoint" />
          </mxGeometry>
        </mxCell>
        <mxCell id="YhL8sy9WghlC7MRLAg31-91" style="edgeStyle=orthogonalEdgeStyle;rounded=0;orthogonalLoop=1;jettySize=auto;html=1;" edge="1" parent="1">
          <mxGeometry relative="1" as="geometry">
            <mxPoint x="490" y="-305.24" as="targetPoint" />
            <mxPoint x="442" y="-305.24" as="sourcePoint" />
          </mxGeometry>
        </mxCell>
        <mxCell id="YhL8sy9WghlC7MRLAg31-92" style="edgeStyle=orthogonalEdgeStyle;rounded=0;orthogonalLoop=1;jettySize=auto;html=1;entryX=0.5;entryY=0;entryDx=0;entryDy=0;" edge="1" parent="1" target="YhL8sy9WghlC7MRLAg31-95">
          <mxGeometry relative="1" as="geometry">
            <mxPoint x="414" y="-295" as="sourcePoint" />
          </mxGeometry>
        </mxCell>
        <mxCell id="YhL8sy9WghlC7MRLAg31-93" style="edgeStyle=orthogonalEdgeStyle;rounded=0;orthogonalLoop=1;jettySize=auto;html=1;" edge="1" parent="1" source="YhL8sy9WghlC7MRLAg31-95" target="YhL8sy9WghlC7MRLAg31-96">
          <mxGeometry relative="1" as="geometry">
            <mxPoint x="490" y="-255" as="targetPoint" />
          </mxGeometry>
        </mxCell>
        <mxCell id="YhL8sy9WghlC7MRLAg31-94" value="" style="edgeStyle=orthogonalEdgeStyle;rounded=0;orthogonalLoop=1;jettySize=auto;html=1;" edge="1" parent="1" source="YhL8sy9WghlC7MRLAg31-95" target="YhL8sy9WghlC7MRLAg31-98">
          <mxGeometry relative="1" as="geometry" />
        </mxCell>
        <mxCell id="YhL8sy9WghlC7MRLAg31-95" value="5" style="rhombus;whiteSpace=wrap;html=1;" vertex="1" parent="1">
          <mxGeometry x="386" y="-270" width="56" height="30" as="geometry" />
        </mxCell>
        <mxCell id="YhL8sy9WghlC7MRLAg31-96" value="Это цифра" style="shape=parallelogram;perimeter=parallelogramPerimeter;whiteSpace=wrap;html=1;fixedSize=1;" vertex="1" parent="1">
          <mxGeometry x="480" y="-267.5" width="100" height="25" as="geometry" />
        </mxCell>
        <mxCell id="YhL8sy9WghlC7MRLAg31-97" style="edgeStyle=orthogonalEdgeStyle;rounded=0;orthogonalLoop=1;jettySize=auto;html=1;" edge="1" parent="1" source="YhL8sy9WghlC7MRLAg31-98" target="YhL8sy9WghlC7MRLAg31-99">
          <mxGeometry relative="1" as="geometry">
            <mxPoint x="490" y="-205" as="targetPoint" />
          </mxGeometry>
        </mxCell>
        <mxCell id="YhL8sy9WghlC7MRLAg31-106" style="edgeStyle=orthogonalEdgeStyle;rounded=0;orthogonalLoop=1;jettySize=auto;html=1;" edge="1" parent="1" source="YhL8sy9WghlC7MRLAg31-98" target="YhL8sy9WghlC7MRLAg31-107">
          <mxGeometry relative="1" as="geometry">
            <mxPoint x="414" y="-120" as="targetPoint" />
          </mxGeometry>
        </mxCell>
        <mxCell id="YhL8sy9WghlC7MRLAg31-98" value="6" style="rhombus;whiteSpace=wrap;html=1;" vertex="1" parent="1">
          <mxGeometry x="386" y="-220" width="56" height="30" as="geometry" />
        </mxCell>
        <mxCell id="YhL8sy9WghlC7MRLAg31-99" value="Это цифра" style="shape=parallelogram;perimeter=parallelogramPerimeter;whiteSpace=wrap;html=1;fixedSize=1;" vertex="1" parent="1">
          <mxGeometry x="480" y="-217.5" width="100" height="25" as="geometry" />
        </mxCell>
        <mxCell id="YhL8sy9WghlC7MRLAg31-100" value="3" style="rhombus;whiteSpace=wrap;html=1;" vertex="1" parent="1">
          <mxGeometry x="386" y="-320" width="56" height="30" as="geometry" />
        </mxCell>
        <mxCell id="YhL8sy9WghlC7MRLAg31-101" value="Это цифра" style="shape=parallelogram;perimeter=parallelogramPerimeter;whiteSpace=wrap;html=1;fixedSize=1;" vertex="1" parent="1">
          <mxGeometry x="480" y="-317.5" width="100" height="25" as="geometry" />
        </mxCell>
        <mxCell id="YhL8sy9WghlC7MRLAg31-103" style="rounded=0;orthogonalLoop=1;jettySize=auto;html=1;endArrow=none;endFill=0;" edge="1" parent="1">
          <mxGeometry relative="1" as="geometry">
            <mxPoint x="640" y="-305.24" as="targetPoint" />
            <mxPoint x="570" y="-305.24" as="sourcePoint" />
          </mxGeometry>
        </mxCell>
        <mxCell id="YhL8sy9WghlC7MRLAg31-104" style="rounded=0;orthogonalLoop=1;jettySize=auto;html=1;endArrow=none;endFill=0;" edge="1" parent="1">
          <mxGeometry relative="1" as="geometry">
            <mxPoint x="640" y="-255.24" as="targetPoint" />
            <mxPoint x="570" y="-255.24" as="sourcePoint" />
          </mxGeometry>
        </mxCell>
        <mxCell id="YhL8sy9WghlC7MRLAg31-105" style="rounded=0;orthogonalLoop=1;jettySize=auto;html=1;endArrow=none;endFill=0;" edge="1" parent="1">
          <mxGeometry relative="1" as="geometry">
            <mxPoint x="640" y="-205.24" as="targetPoint" />
            <mxPoint x="570" y="-205.24" as="sourcePoint" />
          </mxGeometry>
        </mxCell>
        <mxCell id="YhL8sy9WghlC7MRLAg31-131" style="edgeStyle=orthogonalEdgeStyle;rounded=0;orthogonalLoop=1;jettySize=auto;html=1;entryX=0.5;entryY=0;entryDx=0;entryDy=0;" edge="1" parent="1" source="YhL8sy9WghlC7MRLAg31-107" target="YhL8sy9WghlC7MRLAg31-110">
          <mxGeometry relative="1" as="geometry" />
        </mxCell>
        <mxCell id="YhL8sy9WghlC7MRLAg31-132" style="edgeStyle=orthogonalEdgeStyle;rounded=0;orthogonalLoop=1;jettySize=auto;html=1;" edge="1" parent="1" source="YhL8sy9WghlC7MRLAg31-107">
          <mxGeometry relative="1" as="geometry">
            <mxPoint x="414" y="370" as="targetPoint" />
            <Array as="points">
              <mxPoint x="670" y="-95" />
              <mxPoint x="670" y="370" />
              <mxPoint x="414" y="370" />
            </Array>
          </mxGeometry>
        </mxCell>
        <mxCell id="YhL8sy9WghlC7MRLAg31-107" value="ch ,x, y" style="shape=parallelogram;perimeter=parallelogramPerimeter;whiteSpace=wrap;html=1;fixedSize=1;" vertex="1" parent="1">
          <mxGeometry x="356" y="-110" width="116" height="30" as="geometry" />
        </mxCell>
        <mxCell id="YhL8sy9WghlC7MRLAg31-108" style="edgeStyle=orthogonalEdgeStyle;rounded=0;orthogonalLoop=1;jettySize=auto;html=1;entryX=0;entryY=0.5;entryDx=0;entryDy=0;" edge="1" parent="1" source="YhL8sy9WghlC7MRLAg31-110" target="YhL8sy9WghlC7MRLAg31-134">
          <mxGeometry relative="1" as="geometry">
            <mxPoint x="489.9771428571428" y="-24.971428571428532" as="targetPoint" />
          </mxGeometry>
        </mxCell>
        <mxCell id="YhL8sy9WghlC7MRLAg31-109" style="edgeStyle=orthogonalEdgeStyle;rounded=0;orthogonalLoop=1;jettySize=auto;html=1;entryX=0.5;entryY=0;entryDx=0;entryDy=0;" edge="1" parent="1" source="YhL8sy9WghlC7MRLAg31-110" target="YhL8sy9WghlC7MRLAg31-114">
          <mxGeometry relative="1" as="geometry" />
        </mxCell>
        <mxCell id="YhL8sy9WghlC7MRLAg31-110" value="*" style="rhombus;whiteSpace=wrap;html=1;" vertex="1" parent="1">
          <mxGeometry x="386" y="-40" width="56" height="30" as="geometry" />
        </mxCell>
        <mxCell id="YhL8sy9WghlC7MRLAg31-112" style="edgeStyle=orthogonalEdgeStyle;rounded=0;orthogonalLoop=1;jettySize=auto;html=1;entryX=0;entryY=0.5;entryDx=0;entryDy=0;" edge="1" parent="1" source="YhL8sy9WghlC7MRLAg31-114" target="YhL8sy9WghlC7MRLAg31-137">
          <mxGeometry relative="1" as="geometry">
            <mxPoint x="489.9771428571428" y="60.02857142857147" as="targetPoint" />
          </mxGeometry>
        </mxCell>
        <mxCell id="YhL8sy9WghlC7MRLAg31-113" style="edgeStyle=orthogonalEdgeStyle;rounded=0;orthogonalLoop=1;jettySize=auto;html=1;entryX=0.5;entryY=0;entryDx=0;entryDy=0;" edge="1" parent="1" source="YhL8sy9WghlC7MRLAg31-114" target="YhL8sy9WghlC7MRLAg31-119">
          <mxGeometry relative="1" as="geometry" />
        </mxCell>
        <mxCell id="YhL8sy9WghlC7MRLAg31-114" value="/" style="rhombus;whiteSpace=wrap;html=1;" vertex="1" parent="1">
          <mxGeometry x="386" y="45" width="56" height="30" as="geometry" />
        </mxCell>
        <mxCell id="YhL8sy9WghlC7MRLAg31-117" style="edgeStyle=orthogonalEdgeStyle;rounded=0;orthogonalLoop=1;jettySize=auto;html=1;entryX=0;entryY=0.5;entryDx=0;entryDy=0;" edge="1" parent="1" source="YhL8sy9WghlC7MRLAg31-119">
          <mxGeometry relative="1" as="geometry">
            <mxPoint x="490" y="140" as="targetPoint" />
          </mxGeometry>
        </mxCell>
        <mxCell id="YhL8sy9WghlC7MRLAg31-118" style="edgeStyle=orthogonalEdgeStyle;rounded=0;orthogonalLoop=1;jettySize=auto;html=1;entryX=0.5;entryY=0;entryDx=0;entryDy=0;" edge="1" parent="1" source="YhL8sy9WghlC7MRLAg31-119" target="YhL8sy9WghlC7MRLAg31-123">
          <mxGeometry relative="1" as="geometry" />
        </mxCell>
        <mxCell id="YhL8sy9WghlC7MRLAg31-119" value="+" style="rhombus;whiteSpace=wrap;html=1;" vertex="1" parent="1">
          <mxGeometry x="386" y="125" width="56" height="30" as="geometry" />
        </mxCell>
        <mxCell id="YhL8sy9WghlC7MRLAg31-121" style="edgeStyle=orthogonalEdgeStyle;rounded=0;orthogonalLoop=1;jettySize=auto;html=1;entryX=0;entryY=0.5;entryDx=0;entryDy=0;" edge="1" parent="1" source="YhL8sy9WghlC7MRLAg31-123" target="YhL8sy9WghlC7MRLAg31-141">
          <mxGeometry relative="1" as="geometry">
            <mxPoint x="489.9771428571428" y="220.02857142857147" as="targetPoint" />
          </mxGeometry>
        </mxCell>
        <mxCell id="YhL8sy9WghlC7MRLAg31-122" style="edgeStyle=orthogonalEdgeStyle;rounded=0;orthogonalLoop=1;jettySize=auto;html=1;entryX=0.5;entryY=0;entryDx=0;entryDy=0;exitX=0.5;exitY=1;exitDx=0;exitDy=0;" edge="1" parent="1" source="YhL8sy9WghlC7MRLAg31-123" target="YhL8sy9WghlC7MRLAg31-126">
          <mxGeometry relative="1" as="geometry">
            <mxPoint x="414.0000000000002" y="269.99999999999955" as="sourcePoint" />
          </mxGeometry>
        </mxCell>
        <mxCell id="YhL8sy9WghlC7MRLAg31-123" value="-" style="rhombus;whiteSpace=wrap;html=1;" vertex="1" parent="1">
          <mxGeometry x="386" y="205" width="56" height="30" as="geometry" />
        </mxCell>
        <mxCell id="YhL8sy9WghlC7MRLAg31-125" style="edgeStyle=orthogonalEdgeStyle;rounded=0;orthogonalLoop=1;jettySize=auto;html=1;entryX=0;entryY=0.5;entryDx=0;entryDy=0;" edge="1" parent="1" source="YhL8sy9WghlC7MRLAg31-126" target="YhL8sy9WghlC7MRLAg31-144">
          <mxGeometry relative="1" as="geometry">
            <mxPoint x="489.9771428571428" y="305.02857142857147" as="targetPoint" />
          </mxGeometry>
        </mxCell>
        <mxCell id="YhL8sy9WghlC7MRLAg31-133" style="edgeStyle=orthogonalEdgeStyle;rounded=0;orthogonalLoop=1;jettySize=auto;html=1;" edge="1" parent="1" source="YhL8sy9WghlC7MRLAg31-126">
          <mxGeometry relative="1" as="geometry">
            <mxPoint x="414" y="475" as="targetPoint" />
          </mxGeometry>
        </mxCell>
        <mxCell id="YhL8sy9WghlC7MRLAg31-126" value="^" style="rhombus;whiteSpace=wrap;html=1;" vertex="1" parent="1">
          <mxGeometry x="386" y="290" width="56" height="30" as="geometry" />
        </mxCell>
        <mxCell id="YhL8sy9WghlC7MRLAg31-135" style="edgeStyle=orthogonalEdgeStyle;rounded=0;orthogonalLoop=1;jettySize=auto;html=1;endArrow=none;endFill=0;" edge="1" parent="1" source="YhL8sy9WghlC7MRLAg31-134">
          <mxGeometry relative="1" as="geometry">
            <mxPoint x="670" y="-25" as="targetPoint" />
          </mxGeometry>
        </mxCell>
        <mxCell id="YhL8sy9WghlC7MRLAg31-134" value="" style="rounded=0;whiteSpace=wrap;html=1;" vertex="1" parent="1">
          <mxGeometry x="490" y="-55" width="120" height="60" as="geometry" />
        </mxCell>
        <mxCell id="YhL8sy9WghlC7MRLAg31-136" style="edgeStyle=orthogonalEdgeStyle;rounded=0;orthogonalLoop=1;jettySize=auto;html=1;endArrow=none;endFill=0;" edge="1" parent="1" source="YhL8sy9WghlC7MRLAg31-137">
          <mxGeometry relative="1" as="geometry">
            <mxPoint x="670" y="60" as="targetPoint" />
          </mxGeometry>
        </mxCell>
        <mxCell id="YhL8sy9WghlC7MRLAg31-137" value="" style="rounded=0;whiteSpace=wrap;html=1;" vertex="1" parent="1">
          <mxGeometry x="490" y="30" width="120" height="60" as="geometry" />
        </mxCell>
        <mxCell id="YhL8sy9WghlC7MRLAg31-138" style="edgeStyle=orthogonalEdgeStyle;rounded=0;orthogonalLoop=1;jettySize=auto;html=1;endArrow=none;endFill=0;" edge="1" parent="1">
          <mxGeometry relative="1" as="geometry">
            <mxPoint x="670" y="140" as="targetPoint" />
            <mxPoint x="610" y="140" as="sourcePoint" />
          </mxGeometry>
        </mxCell>
        <mxCell id="YhL8sy9WghlC7MRLAg31-139" value="" style="rounded=0;whiteSpace=wrap;html=1;" vertex="1" parent="1">
          <mxGeometry x="490" y="110" width="120" height="60" as="geometry" />
        </mxCell>
        <mxCell id="YhL8sy9WghlC7MRLAg31-140" style="edgeStyle=orthogonalEdgeStyle;rounded=0;orthogonalLoop=1;jettySize=auto;html=1;endArrow=none;endFill=0;" edge="1" parent="1" source="YhL8sy9WghlC7MRLAg31-141">
          <mxGeometry relative="1" as="geometry">
            <mxPoint x="670" y="220" as="targetPoint" />
          </mxGeometry>
        </mxCell>
        <mxCell id="YhL8sy9WghlC7MRLAg31-141" value="" style="rounded=0;whiteSpace=wrap;html=1;" vertex="1" parent="1">
          <mxGeometry x="490" y="190" width="120" height="60" as="geometry" />
        </mxCell>
        <mxCell id="YhL8sy9WghlC7MRLAg31-143" style="edgeStyle=orthogonalEdgeStyle;rounded=0;orthogonalLoop=1;jettySize=auto;html=1;endArrow=none;endFill=0;" edge="1" parent="1" source="YhL8sy9WghlC7MRLAg31-144">
          <mxGeometry relative="1" as="geometry">
            <mxPoint x="670" y="305" as="targetPoint" />
          </mxGeometry>
        </mxCell>
        <mxCell id="YhL8sy9WghlC7MRLAg31-144" value="" style="rounded=0;whiteSpace=wrap;html=1;" vertex="1" parent="1">
          <mxGeometry x="490" y="275" width="120" height="60" as="geometry" />
        </mxCell>
      </root>
    </mxGraphModel>
  </diagram>
</mxfile>
